<svg width="47" height="47" viewBox="0 0 47 47" fill="none" xmlns="http://www.w3.org/2000/svg">
<rect width="47" height="47" rx="5" fill="url(#paint0_linear_142_64)"/>
<path d="M24 16V21.3813L28.5525 19.105C28.7897 18.9863 29.0643 18.9667 29.316 19.0505C29.5676 19.1343 29.7757 19.3147 29.8944 19.5519C30.0131 19.7891 30.0327 20.0637 29.9489 20.3154C29.865 20.567 29.6847 20.7751 29.4475 20.8938L23.4475 23.8938C23.2951 23.97 23.1257 24.0061 22.9554 23.9985C22.7852 23.9909 22.6197 23.9399 22.4746 23.8503C22.3296 23.7608 22.2099 23.6357 22.1268 23.4869C22.0437 23.338 22.0001 23.1704 22 23V16C22 15.7348 22.1054 15.4804 22.2929 15.2929C22.4804 15.1054 22.7348 15 23 15C23.2652 15 23.5196 15.1054 23.7071 15.2929C23.8946 15.4804 24 15.7348 24 16ZM23 34C20.8244 34 18.6977 33.3549 16.8887 32.1462C15.0798 30.9375 13.6699 29.2195 12.8373 27.2095C12.0048 25.1995 11.7869 22.9878 12.2114 20.854C12.6358 18.7202 13.6835 16.7602 15.2218 15.2218C16.7602 13.6835 18.7202 12.6358 20.854 12.2114C22.9878 11.7869 25.1995 12.0048 27.2095 12.8373C29.2195 13.6699 30.9375 15.0798 32.1462 16.8887C33.3549 18.6977 34 20.8244 34 23C34 23.2652 34.1054 23.5196 34.2929 23.7071C34.4804 23.8946 34.7348 24 35 24C35.2652 24 35.5196 23.8946 35.7071 23.7071C35.8946 23.5196 36 23.2652 36 23C36 20.4288 35.2376 17.9154 33.8091 15.7776C32.3807 13.6398 30.3503 11.9735 27.9749 10.9896C25.5995 10.0056 22.9856 9.74819 20.4638 10.2498C17.9421 10.7514 15.6257 11.9895 13.8076 13.8076C11.9895 15.6257 10.7514 17.9421 10.2498 20.4638C9.74819 22.9856 10.0056 25.5995 10.9896 27.9749C11.9735 30.3503 13.6398 32.3807 15.7776 33.8091C17.9154 35.2376 20.4288 36 23 36C23.2652 36 23.5196 35.8946 23.7071 35.7071C23.8946 35.5196 24 35.2652 24 35C24 34.7348 23.8946 34.4804 23.7071 34.2929C23.5196 34.1054 23.2652 34 23 34ZM35.9663 34.7425C36.0029 34.8703 36.0137 35.0041 35.998 35.1362C35.9823 35.2682 35.9404 35.3958 35.8749 35.5114C35.8093 35.6271 35.7213 35.7285 35.616 35.8097C35.5108 35.891 35.3904 35.9504 35.2619 35.9846C35.1334 36.0187 34.9994 36.0269 34.8677 36.0087C34.736 35.9904 34.6093 35.9461 34.4949 35.8783C34.3806 35.8104 34.2809 35.7205 34.2017 35.6137C34.1225 35.5069 34.0654 35.3854 34.0338 35.2563C33.68 33.9275 32.4325 33 31 33C29.5675 33 28.32 33.9275 27.9663 35.2563C27.9097 35.4694 27.7844 35.6579 27.6096 35.7924C27.4349 35.927 27.2205 35.9999 27 36C26.9131 35.9998 26.8265 35.9884 26.7425 35.9663C26.4862 35.898 26.2676 35.7307 26.1347 35.5012C26.0018 35.2717 25.9655 34.9988 26.0338 34.7425C26.3581 33.5381 27.1209 32.4984 28.1725 31.8275C27.6127 31.2683 27.2313 30.5555 27.0766 29.7795C26.9219 29.0035 27.0008 28.199 27.3034 27.4678C27.6061 26.7366 28.1188 26.1117 28.7766 25.672C29.4345 25.2322 30.2081 24.9975 30.9994 24.9975C31.7907 24.9975 32.5642 25.2322 33.2221 25.672C33.88 26.1117 34.3927 26.7366 34.6953 27.4678C34.9979 28.199 35.0769 29.0035 34.9222 29.7795C34.7675 30.5555 34.3861 31.2683 33.8263 31.8275C34.8783 32.4982 35.6416 33.5379 35.9663 34.7425ZM29 29C29 29.3956 29.1173 29.7822 29.3371 30.1111C29.5568 30.44 29.8692 30.6964 30.2346 30.8478C30.6001 30.9991 31.0022 31.0387 31.3902 30.9616C31.7781 30.8844 32.1345 30.6939 32.4142 30.4142C32.6939 30.1345 32.8844 29.7781 32.9616 29.3902C33.0387 29.0022 32.9991 28.6001 32.8478 28.2346C32.6964 27.8692 32.44 27.5568 32.1111 27.3371C31.7822 27.1173 31.3956 27 31 27C30.4696 27 29.9609 27.2107 29.5858 27.5858C29.2107 27.9609 29 28.4696 29 29Z" fill="white"/>
<defs>
<linearGradient id="paint0_linear_142_64" x1="49.5" y1="-4" x2="-6.5" y2="61" gradientUnits="userSpaceOnUse">
<stop stop-color="#3876F5"/>
<stop offset="1" stop-color="#682DDA"/>
</linearGradient>
</defs>
</svg>
