<svg width="16" height="16" viewBox="0 0 16 16" fill="none" xmlns="http://www.w3.org/2000/svg">
<path d="M14.766 0.663852C14.5494 0.673409 14.3475 0.736514 14.1698 0.808351C14.0033 0.875308 13.3673 1.1481 12.3655 1.5777C11.3629 2.00768 10.0353 2.57767 8.61904 3.18669C5.78659 4.40473 2.60219 5.77583 0.971122 6.47757C0.90979 6.50395 0.695781 6.57232 0.468635 6.74964C0.241489 6.92697 0 7.29441 0 7.70384C0 8.03399 0.157343 8.36198 0.355382 8.5578C0.553428 8.75363 0.762978 8.85036 0.942482 8.9236C1.59377 9.18935 3.6137 10.016 3.99514 10.172C4.12938 10.5832 4.8605 12.8197 5.03005 13.3679C5.14181 13.7296 5.24821 13.9561 5.38674 14.1359C5.456 14.2258 5.53651 14.3046 5.63407 14.3663C5.67307 14.391 5.71582 14.41 5.75904 14.4275L5.76165 14.4288C5.7716 14.4328 5.78019 14.4396 5.79029 14.4431C5.80934 14.4498 5.82208 14.4506 5.84757 14.4561C5.94909 14.4889 6.05159 14.5095 6.14307 14.5095C6.53308 14.5095 6.77183 14.2947 6.77183 14.2947L6.78615 14.2843L8.79218 12.549L11.2252 14.8506C11.2595 14.899 11.5789 15.3374 12.2835 15.3374C12.7019 15.3374 13.0338 15.1275 13.2469 14.9039C13.4599 14.6804 13.5927 14.4455 13.6491 14.1502V14.1489C13.7019 13.8699 15.9441 2.35876 15.9441 2.35876L15.9402 2.37438C16.0059 2.07478 16.0231 1.79576 15.9506 1.52042C15.8782 1.24508 15.6874 0.981456 15.4508 0.839597C15.2142 0.697764 14.9827 0.654294 14.766 0.663852ZM14.641 2.05675C14.6378 2.0762 14.6434 2.06642 14.6384 2.08929L14.6371 2.0971L14.6358 2.10492C14.6358 2.10492 12.4214 13.4688 12.3395 13.9016C12.3455 13.8689 12.3181 13.9339 12.29 13.9732C12.2503 13.9458 12.169 13.9107 12.169 13.9107L12.156 13.8964L8.83253 10.7526L6.48283 12.7834L7.18188 9.98455C7.18188 9.98455 11.5516 5.4612 11.8149 5.19793C12.0268 4.98732 12.0713 4.91389 12.0713 4.84124C12.0713 4.74393 12.0206 4.67332 11.9073 4.67332C11.8053 4.67332 11.6682 4.77246 11.5949 4.81911C10.6397 5.428 6.44635 7.87198 4.56663 8.96526C4.2679 8.84301 2.19259 7.99351 1.48923 7.70645C1.49456 7.70411 1.4928 7.70494 1.49834 7.70254C3.12983 7.00062 6.31292 5.62953 9.14496 4.41166C10.561 3.80272 11.8896 3.2323 12.8915 2.80267C13.8779 2.37966 14.5633 2.08852 14.641 2.05675Z" fill="white"/>
</svg>
