<svg width="16" height="18" viewBox="0 0 16 18" fill="none" xmlns="http://www.w3.org/2000/svg">
<path d="M7.82155 0.607236C7.71125 0.604168 7.59885 0.613973 7.48602 0.637664L1.50411 1.89753C0.631515 2.08173 0 2.85873 0 3.75115V14.2495C0 15.1417 0.630901 15.9194 1.50411 16.1031L7.48602 17.3622C8.38876 17.5524 9.26316 16.8429 9.26316 15.9206V2.0801C9.26316 1.27308 8.59362 0.628709 7.82155 0.607236ZM10.5263 2.26349V2.89506V3.52664V14.8951V15.5266V16.1582H14.1053C15.1442 16.1582 16 15.3024 16 14.2635V4.15822C16 3.11928 15.1442 2.26349 14.1053 2.26349H10.5263ZM12.4211 5.21085H13.6842C14.0328 5.21085 14.3158 5.49338 14.3158 5.84243C14.3158 6.19149 14.0328 6.47401 13.6842 6.47401H12.4211C12.0724 6.47401 11.7895 6.19149 11.7895 5.84243C11.7895 5.49338 12.0724 5.21085 12.4211 5.21085ZM3.17352 6.05214C3.37685 6.05748 3.57401 6.15905 3.69243 6.34326L4.63158 7.82599L5.57072 6.34326C5.7602 6.04852 6.15181 5.96474 6.44655 6.15C6.73707 6.33947 6.82507 6.73108 6.6398 7.02582L5.38076 9.00033L6.6398 10.9748C6.82507 11.2696 6.73707 11.6612 6.44655 11.8507C6.34128 11.9138 6.22316 11.9477 6.10526 11.9477C5.89895 11.9477 5.69283 11.8427 5.57072 11.6574L4.63158 10.1747L3.69243 11.6574C3.57033 11.8427 3.36421 11.9477 3.15789 11.9477C3.04 11.9477 2.92188 11.9138 2.81661 11.8507C2.52609 11.6612 2.43809 11.2696 2.62336 10.9748L3.8824 9.00033L2.62336 7.02582C2.43809 6.73108 2.52609 6.33947 2.81661 6.15C2.92714 6.08053 3.05152 6.04893 3.17352 6.05214ZM12.4211 8.57928H13.6842C14.0328 8.57928 14.3158 8.8618 14.3158 9.21085C14.3158 9.55991 14.0328 9.84243 13.6842 9.84243H12.4211C12.0724 9.84243 11.7895 9.55991 11.7895 9.21085C11.7895 8.8618 12.0724 8.57928 12.4211 8.57928ZM12.4211 11.9477H13.6842C14.0328 11.9477 14.3158 12.2302 14.3158 12.5793C14.3158 12.9283 14.0328 13.2109 13.6842 13.2109H12.4211C12.0724 13.2109 11.7895 12.9283 11.7895 12.5793C11.7895 12.2302 12.0724 11.9477 12.4211 11.9477Z" fill="white"/>
</svg>
