<svg width="47" height="47" viewBox="0 0 47 47" fill="none" xmlns="http://www.w3.org/2000/svg">
<rect width="47" height="47" rx="5" fill="url(#paint0_linear_142_46)"/>
<path d="M37.1251 23.8396C36.911 21.3855 36.0134 19.0407 34.534 17.071C33.0546 15.1014 31.0527 13.5859 28.7555 12.6966C26.4583 11.8072 23.9578 11.5796 21.5378 12.0396C19.1178 12.4996 16.8752 13.6288 15.0645 15.2989C12.6472 17.5196 11.1538 20.5684 10.8809 23.8396C10.8587 24.0985 10.8905 24.3591 10.9743 24.6051C11.0582 24.851 11.1922 25.0769 11.3679 25.2683C11.5437 25.4597 11.7573 25.6125 11.9952 25.7169C12.2332 25.8214 12.4902 25.8753 12.7501 25.8751H23.0626V32.4376C23.0626 33.4322 23.4576 34.386 24.1609 35.0893C24.8642 35.7925 25.818 36.1876 26.8126 36.1876C27.8071 36.1876 28.7609 35.7925 29.4642 35.0893C30.1675 34.386 30.5626 33.4322 30.5626 32.4376C30.5626 32.189 30.4638 31.9505 30.288 31.7747C30.1121 31.5989 29.8737 31.5001 29.6251 31.5001C29.3764 31.5001 29.138 31.5989 28.9621 31.7747C28.7863 31.9505 28.6876 32.189 28.6876 32.4376C28.6876 32.9349 28.49 33.4118 28.1384 33.7634C27.7867 34.1151 27.3098 34.3126 26.8126 34.3126C26.3153 34.3126 25.8384 34.1151 25.4867 33.7634C25.1351 33.4118 24.9376 32.9349 24.9376 32.4376V25.8751H35.2501C35.5104 25.8761 35.7681 25.8228 36.0067 25.7187C36.2453 25.6146 36.4597 25.4619 36.636 25.2704C36.8124 25.079 36.947 24.8528 37.0312 24.6065C37.1154 24.3601 37.1473 24.0989 37.1251 23.8396ZM12.7501 24.0001C12.9348 21.8968 13.7052 19.8873 14.9738 18.1994C16.2424 16.5116 17.9585 15.2129 19.9276 14.4507C21.8966 13.6884 24.0398 13.4931 26.1143 13.8868C28.1887 14.2805 30.1113 15.2475 31.6641 16.6782C33.7392 18.5799 35.0199 21.1949 35.2501 24.0001H12.7501Z" fill="white"/>
<defs>
<linearGradient id="paint0_linear_142_46" x1="49.5" y1="-4" x2="-6.5" y2="61" gradientUnits="userSpaceOnUse">
<stop stop-color="#3876F5"/>
<stop offset="1" stop-color="#682DDA"/>
</linearGradient>
</defs>
</svg>
