<svg width="47" height="47" viewBox="0 0 47 47" fill="none" xmlns="http://www.w3.org/2000/svg">
<rect width="47" height="47" rx="5" fill="url(#paint0_linear_142_52)"/>
<path d="M34 12H14C13.4696 12 12.9609 12.2107 12.5858 12.5858C12.2107 12.9609 12 13.4696 12 14V21C12 27.59 15.19 31.5837 17.8663 33.7738C20.7487 36.1313 23.6163 36.9312 23.7413 36.965C23.9131 37.0118 24.0944 37.0118 24.2663 36.965C24.3913 36.9312 27.255 36.1313 30.1413 33.7738C32.81 31.5837 36 27.59 36 21V14C36 13.4696 35.7893 12.9609 35.4142 12.5858C35.0391 12.2107 34.5304 12 34 12ZM34 21C34 25.6337 32.2925 29.395 28.925 32.1775C27.4591 33.3846 25.7919 34.324 24 34.9525C22.2315 34.335 20.5849 33.4123 19.135 32.2262C15.7275 29.4387 14 25.6625 14 21V14H34V21ZM18.2925 24.7075C18.1049 24.5199 17.9994 24.2654 17.9994 24C17.9994 23.7346 18.1049 23.4801 18.2925 23.2925C18.4801 23.1049 18.7346 22.9994 19 22.9994C19.2654 22.9994 19.5199 23.1049 19.7075 23.2925L22 25.5863L28.2925 19.2925C28.3854 19.1996 28.4957 19.1259 28.6171 19.0756C28.7385 19.0253 28.8686 18.9994 29 18.9994C29.1314 18.9994 29.2615 19.0253 29.3829 19.0756C29.5043 19.1259 29.6146 19.1996 29.7075 19.2925C29.8004 19.3854 29.8741 19.4957 29.9244 19.6171C29.9747 19.7385 30.0006 19.8686 30.0006 20C30.0006 20.1314 29.9747 20.2615 29.9244 20.3829C29.8741 20.5043 29.8004 20.6146 29.7075 20.7075L22.7075 27.7075C22.6146 27.8005 22.5043 27.8742 22.3829 27.9246C22.2615 27.9749 22.1314 28.0008 22 28.0008C21.8686 28.0008 21.7385 27.9749 21.6171 27.9246C21.4957 27.8742 21.3854 27.8005 21.2925 27.7075L18.2925 24.7075Z" fill="white"/>
<defs>
<linearGradient id="paint0_linear_142_52" x1="49.5" y1="-4" x2="-6.5" y2="61" gradientUnits="userSpaceOnUse">
<stop stop-color="#3876F5"/>
<stop offset="1" stop-color="#682DDA"/>
</linearGradient>
</defs>
</svg>
