<svg width="125" height="19" viewBox="0 0 125 19" fill="none" xmlns="http://www.w3.org/2000/svg">
<path fill-rule="evenodd" clip-rule="evenodd" d="M22.1276 0.0365131C23.3839 -0.206177 24.7115 0.793134 24.7829 2.07796C24.8543 3.063 24.1405 3.97665 23.2126 4.29072C21.9135 4.74755 20.2575 3.79107 20.2575 2.36348C20.1861 1.23569 21.0426 0.222099 22.1276 0.0365131ZM95.5626 0.0222372C96.8475 -0.149073 98.0895 1.06438 98.0038 2.3492C98.0609 3.1772 97.447 3.9481 96.6904 4.20507C95.5055 4.67617 93.8638 4.07658 93.5783 2.74893C93.2357 1.47838 94.235 0.0936165 95.5626 0.0222372ZM26.239 0.179272C27.2383 0.136444 28.2234 0.15072 29.2227 0.179272C29.237 6.18941 29.2512 12.1853 29.2227 18.1954C28.2377 18.2097 27.2383 18.224 26.2533 18.1954C26.2105 12.1853 26.2248 6.18941 26.239 0.179272ZM32.2206 0.179272C33.5197 0.136444 34.8331 0.15072 36.1322 0.179272C37.9167 2.30638 39.6584 4.46203 41.4428 6.60341C42.1995 7.55989 43.0703 8.43072 43.6128 9.54424C44.2123 10.8148 44.3837 12.3138 44.0125 13.6842C43.4986 15.7114 41.9282 17.4102 40.001 18.1954C38.502 18.8093 36.7889 18.8378 35.2757 18.3096C33.8338 17.7814 32.5347 16.8107 31.7352 15.483C30.793 14.0554 30.5218 12.2138 30.9786 10.5578C31.4069 9.00175 32.449 7.63127 33.8052 6.77472C34.6904 6.16086 35.7468 5.86107 36.8032 5.68976C35.861 4.49058 34.8617 3.33424 33.8909 2.14934C33.3199 1.50693 32.8345 0.793134 32.2206 0.179272ZM36.7603 8.5021C35.6326 8.71624 34.5904 9.47286 34.1193 10.5293C33.5483 11.6428 33.6482 13.0561 34.362 14.084C35.1044 15.2118 36.4748 15.8399 37.8168 15.7114C39.6298 15.6115 41.2858 14.0126 41.2287 12.1567C41.3144 10.8576 40.5435 9.61562 39.4442 8.9732C38.659 8.5021 37.674 8.33079 36.7603 8.5021ZM45.6399 0.164996C46.625 0.122168 47.6243 0.15072 48.6093 0.15072C48.6379 2.2921 48.6236 4.43348 48.6093 6.57486C49.1375 6.375 49.5944 6.03238 50.1368 5.87534C51.5644 5.40424 53.149 5.37569 54.5909 5.86107C56.3326 6.40355 57.7887 7.71693 58.5596 9.35865C59.3305 11.1003 59.3448 13.1846 58.4882 14.8834C57.4889 16.9391 55.3904 18.381 53.1205 18.6094C50.9934 18.8521 48.7663 18.0384 47.3388 16.4395C46.211 15.2118 45.5828 13.5415 45.6399 11.8712C45.6257 7.97389 45.6114 4.06231 45.6399 0.164996ZM51.5359 8.51638C50.2368 8.75907 49.109 9.75838 48.7663 11.0432C48.4808 12.0711 48.6379 13.2417 49.2517 14.1125C49.9512 15.1547 51.2075 15.7685 52.4495 15.6971C54.3197 15.7542 56.047 14.1411 56.1184 12.2709C56.2326 11.0575 55.633 9.81548 54.6337 9.13024C53.7629 8.48782 52.5923 8.31651 51.5359 8.51638ZM63.1564 6.83182C64.4841 5.87534 66.1544 5.40424 67.7818 5.53272C69.6948 5.6041 71.5364 6.70334 72.5214 8.35934C73.3351 9.687 73.4921 11.2716 73.435 12.7991C70.1801 12.8277 66.911 12.7849 63.6561 12.8134C63.7132 13.9412 64.5555 14.8834 65.5405 15.3402C66.6683 15.897 68.053 15.7685 69.1095 15.1404C69.6519 14.8263 70.0517 14.3409 70.4228 13.8555C71.208 14.4551 72.0217 15.0404 72.7355 15.7257C72.1502 16.3967 71.5792 17.0819 70.8226 17.553C69.3521 18.5666 67.4677 18.8807 65.7261 18.538C64.013 18.1954 62.4569 17.1104 61.5575 15.6258C60.6867 14.2696 60.3726 12.585 60.5868 11.0004C60.8152 9.3301 61.7717 7.78831 63.1564 6.83182ZM63.9987 10.3437C66.0259 10.358 68.0673 10.4008 70.0945 10.3294C69.8804 9.85831 69.6091 9.3872 69.1808 9.08741C68.4242 8.45927 67.3678 8.37362 66.4256 8.48782C65.3692 8.63058 64.3413 9.30155 63.9987 10.3437ZM102.929 6.00382C104.342 5.43279 105.941 5.36141 107.412 5.77541C108.796 6.17513 110.053 7.08879 110.781 8.35934C111.609 9.67272 111.766 11.2859 111.666 12.7991C108.411 12.8277 105.17 12.8134 101.915 12.8134C102.03 14.1839 103.186 15.2831 104.485 15.5972C106.112 15.9398 107.968 15.3688 108.968 13.9983C109.553 14.4551 110.095 14.9405 110.681 15.3831C110.795 15.483 111.009 15.6258 110.909 15.8113C110.11 16.9534 108.939 17.8385 107.626 18.3096C106.184 18.8093 104.585 18.795 103.143 18.3239C101.63 17.81 100.302 16.7107 99.5742 15.2831C98.8604 13.9983 98.6748 12.4708 98.8604 11.0432C99.203 8.78762 100.816 6.80327 102.929 6.00382ZM104.442 8.53065C103.471 8.70196 102.643 9.41576 102.272 10.3294C104.285 10.3722 106.312 10.358 108.34 10.3437C108.154 9.91541 107.954 9.48713 107.597 9.18734C106.769 8.40217 105.513 8.33079 104.442 8.53065ZM113.978 7.13162C115.249 5.87534 117.119 5.47562 118.847 5.50417C120.831 5.53272 122.73 6.4321 124.2 7.7312C123.658 8.48783 123.044 9.18734 122.444 9.90113C121.43 8.94465 120.131 8.21658 118.718 8.17376C117.876 8.13093 116.934 8.27369 116.305 8.88755C115.963 9.20162 115.92 9.84403 116.334 10.1153C116.934 10.4722 117.647 10.5007 118.318 10.5864C119.874 10.7434 121.516 10.8291 122.872 11.6999C123.843 12.3138 124.257 13.5272 124.186 14.6407C124.214 15.8827 123.401 16.982 122.387 17.6244C120.974 18.5095 119.232 18.7522 117.59 18.5951C115.649 18.4381 113.779 17.4959 112.508 16.0112C113.136 15.3402 113.75 14.655 114.435 14.0269C114.964 14.5265 115.492 15.0547 116.163 15.3545C117.362 15.9255 118.789 16.1111 120.046 15.6829C120.431 15.5829 120.788 15.3545 121.045 15.0404C121.245 14.7692 121.159 14.4123 121.145 14.1125C120.831 13.8413 120.46 13.6414 120.031 13.5986C118.404 13.3273 116.691 13.4415 115.149 12.8277C114.45 12.5279 113.75 12.0711 113.422 11.343C112.779 10.0011 112.894 8.23086 113.978 7.13162ZM0 5.961C1.09924 5.94672 2.18421 5.961 3.28345 5.961C4.16855 8.30224 5.12503 10.6007 6.02441 12.9419C6.95235 10.6149 7.83745 8.25941 8.82248 5.961C9.522 5.97527 10.2215 5.94672 10.921 5.98955C11.7633 8.33079 12.7341 10.6292 13.6192 12.9562C14.5043 10.6292 15.475 8.33079 16.3459 6.00382C17.4166 5.93244 18.5015 5.961 19.5865 6.00382C18.059 10.0867 16.403 14.1268 14.8469 18.2097C14.1188 18.2525 13.3908 18.2811 12.6627 18.1954C11.8061 15.7542 10.7497 13.3702 9.82179 10.9575C9.4649 11.6856 9.22221 12.4708 8.90814 13.2274C8.23717 14.8691 7.58048 16.5251 6.95235 18.1954C6.23855 18.224 5.48193 18.3382 4.79669 18.1669C3.19779 14.084 1.5989 10.0296 0 5.961ZM21.0283 5.961C22.0277 5.961 23.0412 5.93245 24.0406 5.97527C24.0406 10.0439 24.0406 14.1125 24.0406 18.1811C23.0412 18.224 22.0277 18.1954 21.0283 18.1954C21.0854 15.6258 21.0426 13.0561 21.0569 10.4864C21.0283 8.98748 21.0854 7.47424 21.0283 5.961ZM74.9911 5.97527C75.9904 5.961 76.9754 5.961 77.9748 5.97527C78.0176 6.88893 77.9605 7.80258 78.0176 8.73051C78.4601 8.04527 78.9741 7.38858 79.6593 6.94603C80.7586 6.17514 82.1433 5.91817 83.4567 5.98955C83.4995 6.97458 83.4852 7.97389 83.4567 8.9732C82.2147 9.04458 80.9156 9.21589 79.8592 9.92969C79.0169 10.4722 78.3888 11.3573 78.1175 12.328C77.9177 12.999 77.9748 13.6985 77.9748 14.3838C77.9748 15.6543 77.989 16.9391 77.9605 18.2097C76.9755 18.224 75.9761 18.2382 74.9911 18.2097C74.9626 14.1125 74.9768 10.0439 74.9911 5.97527ZM84.5274 5.97527C85.5124 5.94672 86.4975 5.961 87.4825 5.97527C87.4968 6.87465 87.4825 7.77403 87.511 8.67341C87.9536 8.15948 88.3105 7.55989 88.8672 7.16017C90.0093 6.23224 91.5368 5.90389 92.9787 6.00382C92.9787 7.00313 92.9644 7.98817 92.9787 8.98748C91.7653 9.05886 90.509 9.20162 89.4668 9.85831C88.2677 10.5578 87.5253 11.8998 87.4968 13.2702C87.4825 14.912 87.4968 16.568 87.4968 18.2097C86.5117 18.2525 85.5124 18.2382 84.5274 18.2097C84.4988 14.1125 84.4988 10.0439 84.5274 5.97527ZM94.2778 5.961C95.2771 5.94672 96.2621 5.94672 97.2615 5.961C97.2757 10.0296 97.2757 14.1125 97.2615 18.1811C96.2621 18.2097 95.2771 18.1954 94.2778 18.1811C94.2635 14.1125 94.2635 10.0439 94.2778 5.961Z" fill="url(#paint0_linear_142_12)"/>
<defs>
<linearGradient id="paint0_linear_142_12" x1="0" y1="9.34123" x2="124.2" y2="9.34123" gradientUnits="userSpaceOnUse">
<stop stop-color="#E839CD"/>
<stop offset="1" stop-color="#7403FB"/>
</linearGradient>
</defs>
</svg>
