<svg width="85" height="19" viewBox="0 0 85 19" fill="none" xmlns="http://www.w3.org/2000/svg">
<path d="M10.0031 14.1893C12.1794 13.9134 13.9374 12.1553 14.2151 9.97736C14.312 9.23398 14.2369 8.47827 13.9955 7.76854C13.7541 7.0588 13.3528 6.41401 12.8227 5.88392C12.2926 5.35382 11.6479 4.95259 10.9381 4.71119C10.2284 4.46978 9.47267 4.39465 8.7293 4.4916C6.55131 4.76927 4.7933 6.52728 4.51736 8.70354C4.42041 9.44691 4.49554 10.2026 4.73695 10.9124C4.97835 11.6221 5.37958 12.2669 5.90968 12.797C6.43977 13.3271 7.08456 13.7283 7.7943 13.9697C8.50403 14.2111 9.25974 14.2862 10.0031 14.1893ZM10.2999 0.222394C12.3951 0.442961 14.3511 1.37612 15.8408 2.86585C17.3305 4.35557 18.2637 6.31156 18.4843 8.40677C19.0587 14.2032 14.2272 19.0347 8.42906 18.4602C6.33416 18.2393 4.37858 17.306 2.8892 15.8163C1.39982 14.3266 0.466916 12.3708 0.24642 10.2759C-0.328014 4.47945 4.50348 -0.35204 10.2999 0.222394ZM23.4025 0.585103H36.8193C37.3295 0.585103 37.6176 1.16821 37.3104 1.57431L28.0275 13.8214H35.3008C36.6266 13.8214 37.6697 15.0275 37.3955 16.402C37.1941 17.4103 36.2483 18.0975 35.2209 18.0975H20.6501C20.1451 18.0975 19.8587 17.5196 20.1624 17.1187L29.4523 4.86125H23.4824C22.455 4.86125 21.5091 4.17228 21.3078 3.16572C21.0319 1.79124 22.0766 0.585103 23.4025 0.585103ZM81.6286 0.633696C83.0135 0.34214 84.2318 1.39035 84.2318 2.72318V17.4797C84.2318 17.9951 83.6365 18.2815 83.2339 17.9622L71.6602 8.7799V15.9629C71.6602 17.2957 70.4419 18.344 69.057 18.0524C68.0643 17.8441 67.384 16.9192 67.384 15.9057V1.20119C67.384 0.685759 67.9793 0.39941 68.3819 0.718733L79.9573 9.901V2.78045C79.9573 1.76694 80.6394 0.843685 81.6303 0.633696H81.6286ZM51.4925 0.175537C58.5783 0.175537 64.3227 4.27814 64.3227 9.33871C64.3227 14.3993 58.5783 18.5019 51.4925 18.5019C44.4067 18.5019 38.6623 14.3993 38.6623 9.33871C38.6623 4.27814 44.4067 0.175537 51.4925 0.175537ZM51.4925 4.45168C46.5968 4.45168 42.9385 7.0323 42.9385 9.33871C42.9385 11.6451 46.5968 14.2257 51.4925 14.2257C56.3882 14.2257 60.0465 11.6469 60.0465 9.33871C60.0465 7.03056 56.3882 4.45168 51.4925 4.45168Z" fill="#005BFF"/>
</svg>
