<svg width="381" height="44" viewBox="0 0 381 44" fill="none" xmlns="http://www.w3.org/2000/svg">
<path d="M343.215 0C335.81 0 328.284 5.94826 326.22 13.4746L321.729 29.7413C319.665 37.1463 324.035 43.2159 331.44 43.2159H358.268C365.673 43.2159 373.442 37.2677 375.385 29.7413L378.541 18.0876H351.106L348.435 27.799H361.91L361.789 28.0418C361.303 29.8627 359.239 31.3194 357.297 31.3194H338.845C336.782 31.3194 335.689 29.8627 336.175 28.0418L339.695 15.1741C340.181 13.3532 342.244 11.8965 344.187 11.8965H362.638C364.702 11.8965 365.794 13.3532 365.309 15.1741L365.066 15.9025H378.905L379.512 13.4746C381.576 6.06965 377.205 0 369.801 0H343.215Z" fill="url(#paint0_linear_142_10)"/>
<path d="M282.519 0C275.114 0 267.587 5.94826 265.524 13.4746L261.032 29.7413C258.969 37.1463 263.339 43.2159 270.744 43.2159H299.757C307.162 43.2159 314.688 37.2677 316.752 29.7413L321.243 13.4746C323.307 6.06965 318.937 0 311.532 0H282.519ZM283.854 11.8965H303.884C305.948 11.8965 307.04 13.3532 306.555 15.1741L303.034 28.0418C302.549 29.8627 300.606 31.3194 298.543 31.3194H278.513C276.449 31.3194 275.357 29.8627 275.842 28.0418L279.363 15.1741C279.727 13.3532 281.79 11.8965 283.854 11.8965Z" fill="url(#paint1_linear_142_10)"/>
<path d="M224.269 0L212.494 43.2159H254.011L257.288 31.198H230.46L238.958 0H224.269Z" fill="url(#paint2_linear_142_10)"/>
<path d="M156.289 0L171.342 21.7294L144.514 43.2159H164.665L178.504 32.0478L186.273 43.2159H206.424L191.25 21.8508L218.199 0.121391H198.777L184.088 11.7751L175.833 0.121391H156.289V0Z" fill="url(#paint3_linear_142_10)"/>
<path d="M136.866 0L125.091 43.2159H139.78L151.555 0.121391H136.866V0Z" fill="url(#paint4_linear_142_10)"/>
<path d="M13.2292 0C8.76168 0 4.74431 2.71979 3.08516 6.86778L0.976562 12.1393H59.5088L57.8549 18.209H22.4643C18.0938 18.209 14.1439 20.8135 12.4223 24.8308L11.6184 26.7065H55.5396L53.5551 34.9901H30.32C25.9495 34.9901 21.9996 37.5946 20.278 41.6119L19.4741 43.0946L51.0413 43.2161H64.8801L72.5278 14.0817L79.2045 43.2161H90.6154L113.195 14.0817L104.94 43.2161H118.779L130.554 0.121512H108.703L89.6443 26.221L84.7886 0H13.2292Z" fill="url(#paint5_linear_142_10)"/>
<defs>
<linearGradient id="paint0_linear_142_10" x1="-10.8692" y1="21.8508" x2="426.146" y2="21.8508" gradientUnits="userSpaceOnUse">
<stop stop-color="#278FFF"/>
<stop offset="1" stop-color="#8205CA"/>
</linearGradient>
<linearGradient id="paint1_linear_142_10" x1="-10.8692" y1="21.8508" x2="426.146" y2="21.8508" gradientUnits="userSpaceOnUse">
<stop stop-color="#278FFF"/>
<stop offset="1" stop-color="#8205CA"/>
</linearGradient>
<linearGradient id="paint2_linear_142_10" x1="-10.8692" y1="21.8508" x2="426.146" y2="21.8508" gradientUnits="userSpaceOnUse">
<stop stop-color="#278FFF"/>
<stop offset="1" stop-color="#8205CA"/>
</linearGradient>
<linearGradient id="paint3_linear_142_10" x1="-10.8692" y1="21.8508" x2="426.146" y2="21.8508" gradientUnits="userSpaceOnUse">
<stop stop-color="#278FFF"/>
<stop offset="1" stop-color="#8205CA"/>
</linearGradient>
<linearGradient id="paint4_linear_142_10" x1="-10.8692" y1="21.8508" x2="426.146" y2="21.8508" gradientUnits="userSpaceOnUse">
<stop stop-color="#278FFF"/>
<stop offset="1" stop-color="#8205CA"/>
</linearGradient>
<linearGradient id="paint5_linear_142_10" x1="-10.8692" y1="21.8508" x2="426.146" y2="21.8508" gradientUnits="userSpaceOnUse">
<stop stop-color="#278FFF"/>
<stop offset="1" stop-color="#8205CA"/>
</linearGradient>
</defs>
</svg>
