<svg width="78" height="21" viewBox="0 0 78 21" fill="none" xmlns="http://www.w3.org/2000/svg">
<path fill-rule="evenodd" clip-rule="evenodd" d="M20.2626 10.3412C20.2642 9.69897 20.1385 9.06275 19.8927 8.4694C19.6468 7.87605 19.2857 7.33734 18.8303 6.88446C18.3774 6.42904 17.8387 6.06797 17.2454 5.82212C16.652 5.57628 16.0158 5.45054 15.3736 5.4522H4.91549V15.2303H15.3736C16.0159 15.232 16.6523 15.1063 17.2457 14.8604C17.8392 14.6146 18.378 14.2535 18.831 13.798C19.2863 13.3452 19.6472 12.8066 19.8929 12.2133C20.1387 11.6201 20.2643 10.984 20.2626 10.3419V10.3412ZM25.1058 10.3412C25.1058 15.7154 20.7484 20.0728 15.3736 20.0728H0.0722656V0.609619H15.3736C20.7484 0.609619 25.1058 4.96639 25.1058 10.3412ZM75.7148 9.70575C75.152 9.14171 74.4834 8.6944 73.7472 8.38949C73.0111 8.08458 72.222 7.92808 71.4252 7.92897V7.93672H58.549C58.2182 7.93637 57.9011 7.80481 57.6671 7.57088C57.4332 7.33696 57.3016 7.01979 57.3013 6.68897C57.3013 6.00123 57.8607 5.44123 58.549 5.44123H73.8103C74.4496 5.44123 75.0627 5.18729 75.5147 4.73526C75.9667 4.28324 76.2206 3.67017 76.2206 3.03091C76.2206 2.39165 75.9667 1.77858 75.5147 1.32655C75.0627 0.874531 74.4496 0.620587 73.8103 0.620587H58.549C57.731 0.620587 56.9361 0.781877 56.1858 1.09865C55.4652 1.40294 54.8105 1.84422 54.2581 2.39801C53.7043 2.95071 53.263 3.60561 52.9587 4.32639C52.6421 5.07374 52.4795 5.87731 52.4807 6.68897C52.4807 7.50704 52.6419 8.30188 52.9587 9.05155C53.2629 9.77241 53.7042 10.4273 54.2581 10.9799C54.8209 11.5444 55.4897 11.992 56.2261 12.297C56.9625 12.602 57.752 12.7585 58.549 12.7574H71.4252V12.7496C72.1123 12.7496 72.671 13.3083 72.671 13.9948C72.6708 14.3252 72.5395 14.642 72.3059 14.8757C72.0724 15.1094 71.7556 15.2409 71.4252 15.2412H54.891C54.2517 15.2412 53.6386 15.4952 53.1866 15.9472C52.7346 16.3992 52.4807 17.0123 52.4807 17.6516C52.4807 18.2908 52.7346 18.9039 53.1866 19.3559C53.6386 19.8079 54.2517 20.0619 54.891 20.0619H71.4252C72.222 20.0628 73.0111 19.9064 73.7473 19.6015C74.4834 19.2965 75.1521 18.8492 75.7148 18.2851C76.2684 17.7326 76.7094 17.0779 77.0136 16.3574C77.3304 15.6103 77.493 14.8069 77.4916 13.9954C77.4926 13.1986 77.3362 12.4095 77.0313 11.6733C76.7263 10.9371 76.279 10.2685 75.7148 9.70575ZM46.4439 0.609619H51.2645V17.6516C51.2645 18.1283 51.123 18.5942 50.8581 18.9906C50.5932 19.3869 50.2168 19.6958 49.7763 19.8782C49.3359 20.0606 48.8513 20.1082 48.3837 20.0152C47.9162 19.9221 47.4867 19.6925 47.1497 19.3554L31.0742 7.73607V20.0728H26.2529V3.03091C26.253 2.5542 26.3944 2.08822 26.6593 1.69188C26.9242 1.29554 27.3007 0.986658 27.7411 0.80428C28.1815 0.621902 28.6662 0.574223 29.1337 0.667273C29.6012 0.760323 30.0307 0.989923 30.3677 1.32704L46.4432 12.9464L46.4439 0.609619Z" fill="#FE930F"/>
</svg>
