<svg width="97" height="34" viewBox="0 0 97 34" fill="none" xmlns="http://www.w3.org/2000/svg">
<path d="M80.2076 5.17537L76.8954 14.2469L81.0376 13.8856L84.3498 4.81451L87.9979 4.49484L89.3319 0.841309L77.5226 1.8717L76.188 5.52548L80.2076 5.17537Z" fill="#FF462D"/>
<path d="M84.263 14.8002L96.0723 13.7703L94.739 17.4219L91.0909 17.7416L87.7787 26.8141L83.6359 27.1754L86.9487 18.1025L82.9297 18.4526L84.263 14.8002Z" fill="#FF462D"/>
<path d="M81.7953 18.5558L83.1311 14.8982L72.3639 15.8376L67.7166 28.5646L78.6665 27.6096L80.0065 23.9381L73.1989 24.5348L73.7181 23.1119L78.897 22.6773L79.879 19.9382L74.7179 20.3746L75.171 19.1332L81.7953 18.5558Z" fill="#FF462D"/>
<path d="M66.0319 16.3912L71.1954 15.9409L64.3399 22.9063L67.3297 28.5986L62.941 28.9812L60.5903 24.2617L59.5584 24.3543L57.7018 29.4382L53.5593 29.7995L58.2062 17.0737L62.3488 16.7124L60.706 21.2113L61.7284 21.1189L66.0319 16.3912Z" fill="#FF462D"/>
<path d="M55.1046 22.7515C56.0506 19.2489 54.5442 17.3931 51.2806 17.6774L44.3448 18.2826L39.6985 31.0085L43.841 30.6471L45.0464 27.3319L49.5639 26.9277C52.3825 26.6775 54.2938 25.6961 55.1046 22.7515ZM49.6411 23.5983L46.3012 23.9063L47.1507 21.5776L50.1238 21.3274C50.9925 21.2504 51.3593 21.5006 51.2628 22.2511C51.1663 23.0402 50.6643 23.5021 49.6411 23.5983Z" fill="#FF462D"/>
<path d="M24.5486 32.3297L32.6383 19.3035L38.6545 18.7788L39.183 31.0534L35.1491 31.4051L35.0765 29.7187L30.2438 30.133L29.1849 31.9253L24.5486 32.3297ZM34.7649 22.4809L32.0616 27.0563L34.9511 26.8072L34.7649 22.4809Z" fill="#FF462D"/>
<path d="M22.0985 20.2227L28.2469 19.6865L23.6009 32.4114L19.4581 32.7732L22.3124 24.9557L17.2275 32.9681L13.7202 33.274L14.2129 25.6609L11.3581 33.4801L7.21558 33.8413L11.8618 21.1155L17.43 20.6299L17.0643 28.169L22.0985 20.2227Z" fill="#FF462D"/>
<path d="M69.7909 8.19888L62.9305 15.4648L58.6604 15.8372L63.3069 3.11144L67.4491 2.75015L65.1729 8.98421L71.2879 2.4152L76.0652 1.99854L71.4191 14.7245L67.2762 15.0858L69.7909 8.19888Z" fill="#FF462D"/>
<path d="M48.9384 16.6855L50.6286 12.0565L54.4815 11.7261L52.7935 16.3492L56.9361 15.9879L61.5824 3.26221L57.4399 3.62344L55.821 8.05735L51.9673 8.38955L53.5848 3.95967L49.4422 4.32096L44.7959 17.0467L48.9384 16.6855Z" fill="#FF462D"/>
<path d="M46.5483 8.11172L40.5473 8.63367L37.2322 17.7062L33.0896 18.0675L37.736 5.3418L47.8801 4.45703L46.5483 8.11172Z" fill="#FF462D"/>
<path d="M17.5818 19.42L22.2181 19.0156L23.2768 17.2238L28.1095 16.8095L28.1821 18.4954L32.216 18.1436L31.6875 5.86914L25.6716 6.39384L17.5818 19.42ZM27.7979 9.57161L27.9842 13.8979L25.0947 14.147L27.7979 9.57161Z" fill="#FF462D"/>
<path d="M14.954 7.32861L21.1015 6.79248L16.4558 19.5182L12.3133 19.8795L15.1675 12.0621L10.0829 20.074L6.57538 20.3799L7.06807 12.7673L4.21339 20.5859L0.0708008 20.9473L4.71718 8.22138L10.2852 7.7358L9.91945 15.2753L14.954 7.32861Z" fill="#FF462D"/>
</svg>
