<svg width="149" height="28" viewBox="0 0 149 28" fill="none" xmlns="http://www.w3.org/2000/svg">
<path d="M69.6898 23.8143H72.6199L76.7154 8.59755V23.8143H80.0119V3.70288H75.4834L71.3879 18.4535L67.2924 3.70288H62.6641V23.8143H65.4943V8.59755L69.6898 23.8143ZM93.7968 13.8585C93.7968 10.2957 92.0321 8.96382 88.3694 8.96382C86.0719 8.96382 84.2739 9.66306 83.2084 10.2957V13.126C84.1074 12.4267 86.1385 11.6942 87.9366 11.6942C89.6347 11.6942 90.334 12.3268 90.334 13.8252V14.6243H89.8012C84.5403 14.6243 82.1429 16.3891 82.1429 19.3525C82.1429 22.316 83.9076 23.9808 86.6047 23.9808C88.6358 23.9808 89.5348 23.3482 90.1675 22.6489H90.334C90.334 23.0152 90.5004 23.548 90.6003 23.8143H93.9966C93.8967 22.6489 93.8301 21.4169 93.8301 20.2515C93.7968 20.2515 93.7968 13.8585 93.7968 13.8585ZM90.334 20.3514C89.9011 20.9841 89.102 21.5168 87.8367 21.5168C86.4049 21.5168 85.7057 20.6178 85.7057 19.3858C85.7057 17.6877 86.871 17.0883 89.9011 17.0883H90.4338V20.3847H90.334V20.3514ZM99.757 9.2302H96.5605V28.0098H100.023V22.1495C100.922 23.4814 102.154 24.114 103.686 24.114C107.082 24.114 109.38 21.4502 109.38 16.5556C109.38 11.6609 107.149 8.99712 103.853 8.99712C102.254 8.99712 100.922 9.69636 99.9235 11.1281C99.9568 11.0948 99.757 9.2302 99.757 9.2302ZM102.72 21.4169C100.956 21.4169 99.9568 19.9186 99.9568 16.6222C99.9568 13.2259 100.922 11.7275 102.887 11.7275C104.752 11.7275 105.717 13.2259 105.717 16.5223C105.717 19.9186 104.752 21.4169 102.72 21.4169ZM120.135 23.8143H124.064L118.537 15.9895L123.431 9.2302H119.968L115.074 15.9895V9.2302H111.611V23.8143H115.074V16.6888L120.135 23.8143ZM135.618 22.8487V20.0185C134.552 20.7177 132.788 21.3503 131.09 21.3503C128.592 21.3503 127.627 20.1849 127.427 17.6877H135.685V15.823C135.685 10.7619 133.454 8.89723 129.991 8.89723C125.795 8.89723 123.764 12.0938 123.764 16.5556C123.764 21.6167 126.262 24.114 130.623 24.114C133.054 24.0807 134.652 23.548 135.618 22.8487ZM130.024 11.7275C131.722 11.7275 132.255 13.1593 132.255 14.924V15.1904H127.427C127.527 12.8929 128.426 11.7275 130.024 11.7275ZM148.071 11.9939V9.2302H136.517V11.9939H140.613V23.8143H144.075V11.9939H148.071Z" fill="black"/>
<path d="M42.1195 27.3771C49.5115 27.3771 55.4717 21.4169 55.4717 14.025C55.4717 6.63303 49.5115 0.672852 42.1195 0.672852C34.7276 0.672852 28.7674 6.63303 28.7674 14.025C28.7008 21.4169 34.7609 27.3771 42.1195 27.3771Z" fill="#FED42B"/>
<path d="M13.5841 27.3771C20.9583 27.3771 26.9362 21.3992 26.9362 14.025C26.9362 6.6508 20.9583 0.672852 13.5841 0.672852C6.20989 0.672852 0.231934 6.6508 0.231934 14.025C0.231934 21.3992 6.20989 27.3771 13.5841 27.3771Z" fill="#FC3F1D"/>
<path d="M15.5153 8.1648H14.1834C11.8859 8.1648 10.7205 9.33019 10.7205 11.0949C10.7205 13.0595 11.5196 14.0251 13.2178 15.1905L14.5497 16.1561L10.7205 22.1163H7.59058L11.2533 16.6889C9.12224 15.1905 7.95684 13.7587 7.95684 11.2614C7.95684 8.1315 10.0879 6.00049 14.1834 6.00049H18.2789V22.0164H15.6152V8.1315H15.5153V8.1648Z" fill="white"/>
<mask id="mask0_165_17" style="mask-type:luminance" maskUnits="userSpaceOnUse" x="28" y="0" width="28" height="28">
<path d="M42.1195 27.3771C49.5115 27.3771 55.4717 21.4169 55.4717 14.025C55.4717 6.63303 49.5115 0.672852 42.1195 0.672852C34.7276 0.672852 28.7674 6.63303 28.7674 14.025C28.7008 21.4169 34.7609 27.3771 42.1195 27.3771Z" fill="white"/>
</mask>
<g mask="url(#mask0_165_17)">
<path d="M35.5603 7.99819L23.8064 23.3814L26.9363 26.9442L35.6602 15.3901L34.7611 21.7166L39.6558 23.4147L45.616 13.8918C45.3496 15.6565 44.9168 19.7521 48.8125 21.0173C54.9392 22.882 60.3 11.8606 62.764 6.26673L59.2012 4.4021C56.4376 10.1958 52.1755 16.5888 50.4774 16.156C48.7792 15.7231 50.3109 10.2957 51.2765 6.79949V6.6996L45.8491 4.83496L39.3561 15.4234L40.2552 9.62974L35.5603 7.99819Z" fill="black"/>
</g>
</svg>
